# xmcd
#
# Track frame offsets: 
#        150
#        14771
#        29964
#        41748
#        56312
#        72673
#        86620
#        100276
#        120675
#        132543
#        144229
#        154277
#        167068
#        182072
#        196021
#        209435
#
# Disc length: 2979 seconds
#
# Revision: 0
# Processed by: cddbd v1.5.2PL0 Copyright (c) Steve Scherf et al.
# Submitted via: ExactAudioCopy v0.99pb4
#
DISCID=f10ba110
DTITLE=Ria Valk - Het Beste Van Ria Valk
DYEAR=2009
DGENRE=Folk
TTITLE0=Rocking Billy
TTITLE1=De Liefde Van De Man Gaat Door De Maag (Worstjes Op M'n Borstj
TTITLE1=es)
TTITLE2=Tommy Uit Tennessee
TTITLE3=Leo
TTITLE4=Is Er Hier 'n Dokter In De Zaal ?
TTITLE5=Dat Is Echt Iets Voor Mij
TTITLE6=Vrijgezellenflat
TTITLE7=Moeder, Ik Ben Zo Bang
TTITLE8=Afscheid Van Een Soldaat
TTITLE9=Dan Moet Je M'n Zuster Zien
TTITLE10=Als Ik De Golven Aan Het Strand Zie
TTITLE11=Leg Je Hoofd Maar Op M'n Schouder
TTITLE12=Snurk Rap
TTITLE13=Ik Dans Het Liefst Met Een Krullebol
TTITLE14=Ik Wil 'n Cowboy Als Man
TTITLE15='n Klap Op M'n Kontje 
EXTD=
EXTT0=
EXTT1=
EXTT2=
EXTT3=
EXTT4=
EXTT5=
EXTT6=
EXTT7=
EXTT8=
EXTT9=
EXTT10=
EXTT11=
EXTT12=
EXTT13=
EXTT14=
EXTT15=
PLAYORDER=
